<?xml version="1.0" encoding="UTF-8" standalone="no"?>
<!-- Created with Inkscape (http://www.inkscape.org/) -->

<svg
   xmlns:dc="http://purl.org/dc/elements/1.1/"
   xmlns:cc="http://creativecommons.org/ns#"
   xmlns:rdf="http://www.w3.org/1999/02/22-rdf-syntax-ns#"
   xmlns:svg="http://www.w3.org/2000/svg"
   xmlns="http://www.w3.org/2000/svg"
   xmlns:sodipodi="http://sodipodi.sourceforge.net/DTD/sodipodi-0.dtd"
   xmlns:inkscape="http://www.inkscape.org/namespaces/inkscape"
   width="89.992607"
   height="117.6875"
   id="svg3835"
   version="1.1"
   inkscape:version="0.48.3.1 r9886"
   sodipodi:docname="qbit.svg">
  <defs
     id="defs3837" />
  <sodipodi:namedview
     id="base"
     pagecolor="#ffffff"
     bordercolor="#666666"
     borderopacity="1.0"
     inkscape:pageopacity="0.0"
     inkscape:pageshadow="2"
     inkscape:zoom="1.5124228"
     inkscape:cx="-58.41627"
     inkscape:cy="119.41777"
     inkscape:document-units="px"
     inkscape:current-layer="layer1"
     showgrid="false"
     inkscape:window-width="1366"
     inkscape:window-height="744"
     inkscape:window-x="0"
     inkscape:window-y="24"
     inkscape:window-maximized="1"
     fit-margin-bottom="5"
     fit-margin-top="5"
     fit-margin-left="5"
     fit-margin-right="5">
    <inkscape:grid
       type="xygrid"
       id="grid4373"
       empspacing="5"
       visible="true"
       enabled="true"
       snapvisiblegridlinesonly="true"
       originx="-299.90103px"
       originy="-1319.6683px" />
  </sodipodi:namedview>
  <metadata
     id="metadata3840">
    <rdf:RDF>
      <cc:Work
         rdf:about="">
        <dc:format>image/svg+xml</dc:format>
        <dc:type
           rdf:resource="http://purl.org/dc/dcmitype/StillImage" />
        <dc:title />
      </cc:Work>
    </rdf:RDF>
  </metadata>
  <g
     inkscape:label="Layer 1"
     inkscape:groupmode="layer"
     id="layer1"
     transform="translate(-160.99736,-269.99361)">
    <g
       id="g3818"
       transform="translate(23.472273,-1.2251423)">
      <path
         transform="matrix(0.8284024,0,0,0.8284024,34.004375,79.005133)"
         d="m 225.71429,303.07648 c 0,25.64179 -20.78678,46.42857 -46.42857,46.42857 -25.64179,0 -46.42857,-20.78678 -46.42857,-46.42857 0,-25.64179 20.78678,-46.42857 46.42857,-46.42857 25.64179,0 46.42857,20.78678 46.42857,46.42857 z"
         sodipodi:ry="46.42857"
         sodipodi:rx="46.42857"
         sodipodi:cy="303.07648"
         sodipodi:cx="179.28572"
         id="circle"
         style="fill:#0000ff;fill-opacity:1;stroke:#000000;stroke-width:3.71428561;stroke-miterlimit:4;stroke-opacity:1;stroke-dasharray:none"
         sodipodi:type="arc" />
      <path
         sodipodi:nodetypes="cc"
         inkscape:connector-curvature="0"
         id="path4375"
         d="m 182.5251,291.61288 0,-15.38462"
         style="fill:none;stroke:#000000;stroke-width:3.07692313;stroke-linecap:butt;stroke-linejoin:miter;stroke-miterlimit:4;stroke-opacity:1;stroke-dasharray:none" />
      <path
         style="fill:none;stroke:#000000;stroke-width:3.07692313;stroke-linecap:butt;stroke-linejoin:miter;stroke-miterlimit:4;stroke-opacity:1;stroke-dasharray:none"
         d="m 182.5251,383.92057 0,-15.38462"
         id="path4393"
         inkscape:connector-curvature="0"
         sodipodi:nodetypes="cc" />
    </g>
    <g
       transform="matrix(0.76923078,0,0,0.76923078,83.31756,196.9864)"
       style="font-size:72px;font-style:normal;font-variant:normal;font-weight:normal;font-stretch:normal;line-height:125%;letter-spacing:0px;word-spacing:0px;fill:#000000;fill-opacity:0;stroke:#000000;stroke-width:1;stroke-miterlimit:4;stroke-opacity:1;font-family:Diskoteque;-inkscape-font-specification:Diskoteque"
       id="question"
       inkscape:label="#flowRoot4377">
      <path
         d="m 152.85975,193.77773 c 0.28798,-2.15999 -0.33602,-3.23999 -1.872,-3.24 -1.53601,1e-5 -2.44801,1.08001 -2.736,3.24 -0.28801,2.208 0.33599,3.312 1.872,3.312 1.53598,0 2.44798,-1.104 2.736,-3.312 m 4.896,0 c 0.28798,-2.15999 -0.33602,-3.23999 -1.872,-3.24 -1.53602,1e-5 -2.44802,1.08001 -2.736,3.24 -0.28802,2.208 0.33598,3.312 1.872,3.312 1.53598,0 2.44798,-1.104 2.736,-3.312 m -4.032,-6.912 c 0.23998,-2.15999 -0.40802,-3.23999 -1.944,-3.24 -1.53601,1e-5 -2.42401,1.08001 -2.664,3.24 -0.24001,2.20801 0.38399,3.31201 1.872,3.312 1.58398,1e-5 2.49598,-1.10399 2.736,-3.312 m 4.896,0 c 0.23998,-2.15999 -0.40802,-3.23999 -1.944,-3.24 -1.53602,1e-5 -2.42402,1.08001 -2.664,3.24 -0.24002,2.20801 0.38398,3.31201 1.872,3.312 1.58398,1e-5 2.49598,-1.10399 2.736,-3.312 m 4.176,10.8 0,-0.072 c -0.38403,3.024 -1.77602,4.536 -4.176,4.536 -1.05602,0 -1.87202,-0.288 -2.448,-0.864 -0.67202,0.576 -1.48802,0.864 -2.448,0.864 -2.16002,0 -3.28801,-1.2 -3.384,-3.6 l -0.216,0 c -2.25601,0 -3.38401,-1.272 -3.384,-3.816 l 0,-0.648 c -10e-6,-0.192 0.024,-0.384 0.072,-0.576 l 0,0.072 c 0.14399,-1.48799 0.57599,-2.59199 1.296,-3.312 -0.33601,-0.62399 -0.50401,-1.43999 -0.504,-2.448 l 0,-0.648 c -1e-5,-0.19199 0.024,-0.38399 0.072,-0.576 l 0,0.144 c 0.28799,-3.02399 1.65599,-4.53598 4.104,-4.536 1.05598,2e-5 1.87198,0.28802 2.448,0.864 0.62398,-0.57598 1.43998,-0.86398 2.448,-0.864 2.25598,2e-5 3.40798,1.20001 3.456,3.6 l 0.144,0 c 2.30397,1e-5 3.45597,1.29601 3.456,3.888 l 0,0.36 c -0.048,0.19201 -0.072,0.33601 -0.072,0.432 l 0,0.216 c -0.24003,1.58401 -0.69603,2.712 -1.368,3.384 0.38397,0.672 0.57597,1.464 0.576,2.376 l 0,0.648 c -3e-5,0.192 -0.024,0.384 -0.072,0.576 m -7.416,-24.552 c 0.28798,-2.20797 -0.33602,-3.31197 -1.872,-3.312 -1.53602,3e-5 -2.44801,1.10403 -2.736,3.312 -0.24001,2.16002 0.40798,3.24002 1.944,3.24 1.53598,2e-5 2.42398,-1.07998 2.664,-3.24 m -8.136,-13.824 c 0.28799,-2.20796 -0.36001,-3.31196 -1.944,-3.312 -1.48801,4e-5 -2.37601,1.10404 -2.664,3.312 -0.28801,2.16004 0.33599,3.24004 1.872,3.24 1.53599,4e-5 2.44799,-1.07996 2.736,-3.24 m 13.032,13.824 c 0.28798,-2.20797 -0.33602,-3.31197 -1.872,-3.312 -1.53602,3e-5 -2.44802,1.10403 -2.736,3.312 -0.24002,2.16002 0.40798,3.24002 1.944,3.24 1.53598,2e-5 2.42398,-1.07998 2.664,-3.24 m -8.136,-13.824 c 0.28798,-2.20796 -0.36002,-3.31196 -1.944,-3.312 -1.48801,4e-5 -2.37601,1.10404 -2.664,3.312 -0.28801,2.16004 0.33599,3.24004 1.872,3.24 1.53599,4e-5 2.44798,-1.07996 2.736,-3.24 m -4.032,-6.912 c 0.23999,-2.20795 -0.40801,-3.31195 -1.944,-3.312 -1.53601,5e-5 -2.42401,1.10405 -2.664,3.312 -0.24001,2.20804 0.38399,3.31204 1.872,3.312 1.58399,4e-5 2.49599,-1.10396 2.736,-3.312 m 13.032,13.824 c 0.28797,-2.20797 -0.33602,-3.31196 -1.872,-3.312 -1.53602,4e-5 -2.44802,1.10403 -2.736,3.312 -0.28802,2.16003 0.33598,3.24003 1.872,3.24 1.53598,3e-5 2.44798,-1.07997 2.736,-3.24 m -8.136,-13.824 c 0.23998,-2.20795 -0.40802,-3.31195 -1.944,-3.312 -1.53601,5e-5 -2.42401,1.10405 -2.664,3.312 -0.24001,2.20804 0.38399,3.31204 1.872,3.312 1.58398,4e-5 2.49598,-1.10396 2.736,-3.312 m 13.104,13.824 c 0.28797,-2.20797 -0.33603,-3.31196 -1.872,-3.312 -1.53603,4e-5 -2.44803,1.10403 -2.736,3.312 -0.28803,2.16003 0.33597,3.24003 1.872,3.24 1.53597,3e-5 2.44797,-1.07997 2.736,-3.24 m -8.136,-13.824 c 0.23998,-2.20795 -0.40802,-3.31195 -1.944,-3.312 -1.53602,5e-5 -2.42402,1.10405 -2.664,3.312 -0.24002,2.20804 0.38398,3.31204 1.872,3.312 1.58398,4e-5 2.49598,-1.10396 2.736,-3.312 m -4.176,-6.912 c 0.23998,-2.20795 -0.38402,-3.31194 -1.872,-3.312 -1.58401,6e-5 -2.49601,1.10405 -2.736,3.312 -0.24001,2.20805 0.40799,3.31205 1.944,3.312 1.53598,5e-5 2.42398,-1.10395 2.664,-3.312 m 13.176,13.824 c 0.28797,-2.20796 -0.36003,-3.31196 -1.944,-3.312 -1.48803,4e-5 -2.37603,1.10404 -2.664,3.312 -0.28803,2.16004 0.33597,3.24004 1.872,3.24 1.53597,4e-5 2.44797,-1.07996 2.736,-3.24 m -4.104,-6.912 c 0.23997,-2.20795 -0.40803,-3.31195 -1.944,-3.312 -1.53602,5e-5 -2.42402,1.10405 -2.664,3.312 -0.24002,2.20804 0.38398,3.31204 1.872,3.312 1.58397,4e-5 2.49597,-1.10396 2.736,-3.312 m -4.104,-6.912 c 0.23998,-2.20795 -0.38402,-3.31194 -1.872,-3.312 -1.58402,6e-5 -2.49602,1.10405 -2.736,3.312 -0.24002,2.20805 0.40798,3.31205 1.944,3.312 1.53598,5e-5 2.42398,-1.10395 2.664,-3.312 m 13.104,13.824 c 0.28796,-2.20796 -0.36004,-3.31196 -1.944,-3.312 -1.48803,4e-5 -2.37603,1.10404 -2.664,3.312 -0.28803,2.16004 0.33597,3.24004 1.872,3.24 1.53597,4e-5 2.44796,-1.07996 2.736,-3.24 m -4.032,-6.912 c 0.23997,-2.20795 -0.40803,-3.31195 -1.944,-3.312 -1.53603,5e-5 -2.42403,1.10405 -2.664,3.312 -0.24003,2.20804 0.38397,3.31204 1.872,3.312 1.58397,4e-5 2.49597,-1.10396 2.736,-3.312 m -4.176,-6.912 c 0.23997,-2.20795 -0.38403,-3.31194 -1.872,-3.312 -1.58402,6e-5 -2.49602,1.10405 -2.736,3.312 -0.24002,2.20805 0.40798,3.31205 1.944,3.312 1.53597,5e-5 2.42397,-1.10395 2.664,-3.312 m 9.072,6.912 c 0.23996,-2.20795 -0.40804,-3.31195 -1.944,-3.312 -1.53603,5e-5 -2.42403,1.10405 -2.664,3.312 -0.24003,2.20804 0.38397,3.31204 1.872,3.312 1.58396,4e-5 2.49596,-1.10396 2.736,-3.312 m -4.104,-6.912 c 0.23997,-2.20795 -0.38403,-3.31194 -1.872,-3.312 -1.58403,6e-5 -2.49603,1.10405 -2.736,3.312 -0.24003,2.20805 0.40797,3.31205 1.944,3.312 1.53597,5e-5 2.42397,-1.10395 2.664,-3.312 m -3.312,31.536 0,-0.144 c -0.28803,3.02402 -1.65603,4.53602 -4.104,4.536 -1.10402,2e-5 -1.92002,-0.26398 -2.448,-0.792 -0.57602,0.52802 -1.39202,0.79202 -2.448,0.792 -2.25602,2e-5 -3.40802,-1.19998 -3.456,-3.6 l -0.144,0 c -2.30401,2e-5 -3.45601,-1.29598 -3.456,-3.888 -1e-5,-0.14398 0.024,-0.31198 0.072,-0.504 l 0,-0.504 c 0.33599,-3.02397 1.72799,-4.53597 4.176,-4.536 0.57598,3e-5 1.15198,0.12003 1.728,0.36 -0.14402,-0.43197 -0.21602,-0.95997 -0.216,-1.584 -0.57602,0.28803 -1.24802,0.43203 -2.016,0.432 -1.05602,3e-5 -1.84802,-0.26397 -2.376,-0.792 -0.57601,0.52803 -1.41601,0.79203 -2.52,0.792 -2.25601,3e-5 -3.38401,-1.19997 -3.384,-3.6 l -0.216,0 c -2.25601,3e-5 -3.384,-1.24796 -3.384,-3.744 l 0,-0.648 c 0,-0.19196 0.024,-0.38396 0.072,-0.576 l 0,0.072 c 0.14399,-1.53596 0.57599,-2.66396 1.296,-3.384 -0.33601,-0.62396 -0.50401,-1.41596 -0.504,-2.376 l 0,-0.648 c -1e-5,-0.19195 0.024,-0.38395 0.072,-0.576 l 0,0.144 c 0.28799,-3.07195 1.65599,-4.60795 4.104,-4.608 0.62399,5e-5 1.17599,0.12005 1.656,0.36 -0.096,-0.23995 -0.14401,-0.50395 -0.144,-0.792 l 0,-0.936 c -1e-5,-0.14395 0.024,-0.31195 0.072,-0.504 l 0,-0.504 c 0.33599,-3.02394 1.72799,-4.53594 4.176,-4.536 1.00798,6e-5 1.79998,0.28806 2.376,0.864 0.62398,-0.57594 1.48798,-0.86394 2.592,-0.864 1.00798,6e-5 1.79998,0.28806 2.376,0.864 0.62398,-0.57594 1.46398,-0.86394 2.52,-0.864 1.00797,6e-5 1.79997,0.28806 2.376,0.864 0.62397,-0.57594 1.48797,-0.86394 2.592,-0.864 2.15997,6e-5 3.28797,1.20006 3.384,3.6 l 0.216,0 c 2.25596,5e-5 3.38396,1.27205 3.384,3.816 -4e-5,0.43205 -0.024,0.74405 -0.072,0.936 0.28796,0.48005 0.47996,1.20005 0.576,2.16 l 0.144,0 c 2.30396,5e-5 3.45596,1.32005 3.456,3.96 l 0,0.36 c -0.048,0.19204 -0.072,0.33604 -0.072,0.432 l 0,0.216 c -0.24004,1.58404 -0.69604,2.71204 -1.368,3.384 0.38396,0.67204 0.57596,1.48804 0.576,2.448 l 0,0.576 c -4e-5,0.14404 -0.048,0.36004 -0.144,0.648 l 0.072,-0.144 c -0.38404,2.97603 -1.77604,4.46403 -4.176,4.464 -0.81604,3e-5 -1.39204,-0.11997 -1.728,-0.36 0.14397,0.52803 0.21596,1.08003 0.216,1.656 l 0,0.648 c -4e-5,0.19203 -0.024,0.38403 -0.072,0.576 l 0,-0.072 c -0.38403,2.97603 -1.77603,4.46402 -4.176,4.464 -0.62403,2e-5 -1.22403,-0.11998 -1.8,-0.36 0.14397,0.43202 0.21597,0.98402 0.216,1.656 l 0,0.648 c -3e-5,0.19202 -0.024,0.38402 -0.072,0.576 m -4.248,-15.12 c -0.14402,-0.47996 -0.21602,-1.00796 -0.216,-1.584 -0.57602,0.28804 -1.24802,0.43204 -2.016,0.432 -0.76802,4e-5 -1.36802,-0.11996 -1.8,-0.36 0.14398,0.43204 0.21598,0.96004 0.216,1.584 0.52798,-0.33596 1.19998,-0.50396 2.016,-0.504 0.67198,4e-5 1.27198,0.14404 1.8,0.432"
         style="stroke:#000000;stroke-width:3;stroke-miterlimit:4;stroke-opacity:1;stroke-dasharray:none"
         id="path4401"
         inkscape:connector-curvature="0" />
    </g>
    <path
       inkscape:connector-curvature="0"
       id="one"
       style="font-size:72px;font-style:normal;font-variant:normal;font-weight:normal;font-stretch:normal;line-height:125%;letter-spacing:0px;word-spacing:0px;fill:#000000;fill-opacity:1;stroke:#000000;stroke-width:2.30769229;stroke-miterlimit:4;stroke-opacity:1;stroke-dasharray:none;font-family:Diskoteque;-inkscape-font-specification:Diskoteque"
       d="m 200.32038,346.0462 c 0.22153,-1.66153 -0.25846,-2.4923 -1.44,-2.49231 -1.18154,10e-6 -1.88307,0.83078 -2.10461,2.49231 -0.22154,1.69847 0.25846,2.54769 1.44,2.54769 1.18154,0 1.88307,-0.84922 2.10461,-2.54769 m 3.76616,0 c 0.22153,-1.66153 -0.25847,-2.4923 -1.44,-2.49231 -1.18155,10e-6 -1.88309,0.83078 -2.10462,2.49231 -0.22154,1.69847 0.25846,2.54769 1.44,2.54769 1.18153,0 1.88307,-0.84922 2.10462,-2.54769 m -3.10154,-5.31692 c 0.18461,-1.66153 -0.31386,-2.49229 -1.49539,-2.49231 -1.18153,2e-5 -1.86461,0.83078 -2.04923,2.49231 -0.18461,1.69847 0.29539,2.5477 1.44,2.54769 1.21846,10e-6 1.92,-0.84922 2.10462,-2.54769 m 6.92308,5.31692 c 0.22152,-1.66153 -0.25847,-2.4923 -1.44,-2.49231 -1.18155,10e-6 -1.88309,0.83078 -2.10462,2.49231 -0.22155,1.69847 0.25845,2.54769 1.44,2.54769 1.18153,0 1.88307,-0.84922 2.10462,-2.54769 m -3.15693,-5.31692 c 0.18461,-1.66153 -0.31385,-2.49229 -1.49538,-2.49231 -1.18155,2e-5 -1.86463,0.83078 -2.04923,2.49231 -0.18463,1.69847 0.29537,2.5477 1.44,2.54769 1.21845,10e-6 1.91999,-0.84922 2.10461,-2.54769 m 6.92308,5.31692 c 0.22152,-1.66153 -0.25848,-2.4923 -1.44,-2.49231 -1.18154,10e-6 -1.88309,0.83078 -2.10462,2.49231 -0.22154,1.69847 0.25845,2.54769 1.44,2.54769 1.18153,0 1.88307,-0.84922 2.10462,-2.54769 m -3.10154,-5.31692 c 0.1846,-1.66153 -0.31386,-2.49229 -1.49538,-2.49231 -1.18155,2e-5 -1.86463,0.83078 -2.04923,2.49231 -0.18463,1.69847 0.29537,2.5477 1.44,2.54769 1.21845,10e-6 1.91998,-0.84922 2.10461,-2.54769 m -3.15692,-5.31693 c 0.18461,-1.66152 -0.31386,-2.49229 -1.49539,-2.4923 -1.18154,10e-6 -1.86462,0.83078 -2.04923,2.4923 -0.18462,1.69848 0.29538,2.54771 1.44,2.5477 1.21846,10e-6 1.92,-0.84922 2.10463,-2.5477 m 6.92306,5.31693 c 0.1846,-1.66153 -0.31386,-2.49229 -1.49538,-2.49231 -1.18154,2e-5 -1.86463,0.83078 -2.04923,2.49231 -0.18463,1.69847 0.29537,2.5477 1.44,2.54769 1.21845,10e-6 1.91999,-0.84922 2.10461,-2.54769 m -3.10152,-5.31693 c 0.18459,-1.66152 -0.31388,-2.49229 -1.49539,-2.4923 -1.18154,10e-6 -1.86462,0.83078 -2.04923,2.4923 -0.18462,1.69848 0.29538,2.54771 1.44,2.5477 1.21845,10e-6 1.91999,-0.84922 2.10462,-2.5477 m -3.21231,-5.26153 c 0.22153,-1.69844 -0.25847,-2.54767 -1.44,-2.5477 -1.18155,3e-5 -1.88309,0.84926 -2.10462,2.5477 -0.18462,1.66156 0.31384,2.49233 1.49539,2.4923 1.18153,3e-5 1.86461,-0.83074 2.04923,-2.4923 m 3.82153,0 c 0.22152,-1.69844 -0.25847,-2.54767 -1.43999,-2.5477 -1.18155,3e-5 -1.8831,0.84926 -2.10463,2.5477 -0.18462,1.66156 0.31384,2.49233 1.49539,2.4923 1.18152,3e-5 1.8646,-0.83074 2.04923,-2.4923 m -3.15693,-5.31693 c 0.22153,-1.69843 -0.25847,-2.54766 -1.44,-2.54769 -1.18154,3e-5 -1.88308,0.84926 -2.10461,2.54769 -0.22155,1.66156 0.25845,2.49233 1.44,2.49231 1.18153,2e-5 1.88307,-0.83075 2.10461,-2.49231 m -3.10153,-5.31692 c 0.22153,-1.69843 -0.27694,-2.54765 -1.49539,-2.54769 -1.14462,4e-5 -1.82768,0.84926 -2.04922,2.54769 -0.22154,1.66157 0.25846,2.49234 1.44,2.49231 1.18153,3e-5 1.88307,-0.83074 2.10462,-2.49231 m 6.92307,5.31692 c 0.22153,-1.69843 -0.25847,-2.54766 -1.44,-2.54769 -1.18155,3e-5 -1.88308,0.84926 -2.10461,2.54769 -0.22156,1.66156 0.25845,2.49233 1.44,2.49231 1.18152,2e-5 1.88306,-0.83075 2.10461,-2.49231 m -3.15693,-5.31692 c 0.22153,-1.69843 -0.27692,-2.54765 -1.49538,-2.54769 -1.14462,4e-5 -1.8277,0.84926 -2.04923,2.54769 -0.22154,1.66157 0.25846,2.49234 1.44,2.49231 1.18153,3e-5 1.88307,-0.83074 2.10462,-2.49231 m -3.10154,-5.31692 c 0.18461,-1.69843 -0.31385,-2.54766 -1.49538,-2.5477 -1.18155,4e-5 -1.86463,0.84927 -2.04923,2.5477 -0.18463,1.6985 0.29537,2.54773 1.44,2.54769 1.21845,4e-5 1.91999,-0.84919 2.10461,-2.54769 m 6.92308,5.31692 c 0.22152,-1.69843 -0.27694,-2.54765 -1.49539,-2.54769 -1.14463,4e-5 -1.8277,0.84926 -2.04923,2.54769 -0.22154,1.66157 0.25846,2.49234 1.44,2.49231 1.18153,3e-5 1.88306,-0.83074 2.10462,-2.49231 m -3.15693,-5.31692 c 0.1846,-1.69843 -0.31385,-2.54766 -1.49538,-2.5477 -1.18155,4e-5 -1.86462,0.84927 -2.04923,2.5477 -0.18462,1.6985 0.29538,2.54773 1.44,2.54769 1.21845,4e-5 1.91999,-0.84919 2.10461,-2.54769 m 3.82154,0 c 0.1846,-1.69843 -0.31386,-2.54766 -1.49538,-2.5477 -1.18156,4e-5 -1.86463,0.84927 -2.04923,2.5477 -0.18463,1.6985 0.29537,2.54773 1.44,2.54769 1.21844,4e-5 1.91998,-0.84919 2.10461,-2.54769 m -3.2123,-5.31693 c 0.1846,-1.69841 -0.2954,-2.54764 -1.44,-2.54769 -1.21847,5e-5 -1.92001,0.84928 -2.10462,2.54769 -0.18462,1.6985 0.31384,2.54773 1.49538,2.5477 1.18154,3e-5 1.8646,-0.8492 2.04924,-2.5477 m 3.82153,0 c 0.1846,-1.69841 -0.2954,-2.54764 -1.44,-2.54769 -1.21847,5e-5 -1.92001,0.84928 -2.10461,2.54769 -0.18463,1.6985 0.31383,2.54773 1.49538,2.5477 1.18153,3e-5 1.8646,-0.8492 2.04923,-2.5477 m 3.10154,40.15385 0,-0.0554 c -0.2954,2.32615 -1.36617,3.48923 -3.21231,3.48923 -0.81232,0 -1.44001,-0.22154 -1.88307,-0.66462 -0.51694,0.44308 -1.14463,0.66462 -1.88308,0.66462 -0.81231,0 -1.44001,-0.22154 -1.88308,-0.66462 -0.51693,0.44308 -1.16308,0.66462 -1.93846,0.66462 -0.81231,0 -1.44001,-0.22154 -1.88307,-0.66462 -0.51694,0.44308 -1.14463,0.66462 -1.88308,0.66462 -1.66154,0 -2.52923,-0.92308 -2.60308,-2.76923 l -0.16615,0 c -1.73539,0 -2.60308,-0.97847 -2.60308,-2.93539 l 0,-0.49846 c 0,-0.14769 0.0185,-0.29538 0.0554,-0.44308 l 0,0.0554 c 0.11076,-1.14461 0.44307,-1.99384 0.99692,-2.5477 -0.25846,-0.47999 -0.38769,-1.10768 -0.38769,-1.88307 l 0,-0.49846 c 0,-0.14769 0.0185,-0.29538 0.0554,-0.44308 l 0,0.11077 c 0.22154,-2.32614 1.27385,-3.48922 3.15692,-3.48923 0.48,10e-6 0.94153,0.0923 1.38462,0.27692 -0.11078,-0.33229 -0.16616,-0.75691 -0.16615,-1.27385 l 0,-0.49846 c -1e-5,-0.14767 0.0185,-0.29537 0.0554,-0.44307 l 0,0.11077 c 0.11076,-1.18153 0.44307,-2.04922 0.99692,-2.60308 -0.29539,-0.5169 -0.44308,-1.16306 -0.44307,-1.93846 -1e-5,-0.11075 0.0185,-0.23998 0.0554,-0.3877 l 0,-0.38769 c 0.11076,-1.18151 0.44307,-2.04921 0.99692,-2.60307 -0.25847,-0.47998 -0.3877,-1.08921 -0.38769,-1.8277 l 0,-0.77538 c -0.22154,-0.44305 -0.33231,-0.99689 -0.33231,-1.66154 l -0.16615,0 c -1.73538,3e-5 -2.60308,-0.95997 -2.60308,-2.88 l 0,-0.49846 c 0,-0.14766 0.0185,-0.29536 0.0554,-0.44308 l 0,0.0554 c 0.11077,-1.18151 0.44307,-2.0492 0.99691,-2.60308 -0.25846,-0.47996 -0.38768,-1.08919 -0.38768,-1.82769 l 0,-0.49847 c 0,-0.14765 0.0185,-0.29534 0.0554,-0.44307 l 0,0.11077 c 0.22155,-2.36304 1.27385,-3.54458 3.15693,-3.54462 0.47999,4e-5 0.9046,0.0923 1.27384,0.27692 -0.0738,-0.18457 -0.11077,-0.38765 -0.11077,-0.60923 l 0,-0.72 c 0,-0.11072 0.0185,-0.23995 0.0554,-0.38769 l 0,-0.38769 c 0.25845,-2.32611 1.32922,-3.48919 3.21231,-3.48923 0.77537,4e-5 1.3846,0.22158 1.82769,0.66461 0.47998,-0.44303 1.1446,-0.66457 1.99384,-0.66461 1.66153,4e-5 2.52922,0.92312 2.60308,2.76923 l 0.16615,0 c 1.73537,5e-5 2.60306,0.97851 2.60308,2.93538 l 0,0.49847 c -2e-5,0.14773 -0.0185,0.29542 -0.0554,0.44307 l 0,-0.11077 c -0.1108,1.18158 -0.44309,2.06773 -0.99693,2.65846 0.29537,0.48004 0.44306,1.1262 0.44309,1.93847 l 0,0.27692 c -0.0369,0.14773 -0.0554,0.2585 -0.0554,0.33231 l 0,0.16615 c -0.18463,1.21849 -0.5354,2.08619 -1.05231,2.60308 0.29536,0.51695 0.44306,1.14464 0.44308,1.88308 l 0,0.44307 c -2e-5,0.1108 -0.0369,0.27696 -0.11077,0.49846 l 0.0554,-0.11077 c -0.14771,1.14465 -0.49848,2.01234 -1.05231,2.60308 0.29536,0.48002 0.44306,1.08926 0.44308,1.82769 l 0,0.49847 c -2e-5,0.14771 -0.0185,0.2954 -0.0554,0.44307 l 0,-0.0554 c -0.14771,1.14464 -0.49848,2.01233 -1.05231,2.60307 0.29537,0.48003 0.44306,1.08926 0.44307,1.8277 l 0,0.49846 c -1e-5,0.14771 -0.0185,0.2954 -0.0554,0.44308 l 0,-0.11077 c -0.11078,1.18155 -0.44309,2.0677 -0.99692,2.65846 0.29537,0.48001 0.44306,1.10771 0.44307,1.88307 l 0,0.27693 c -0.0369,0.14771 -0.0554,0.25847 -0.0554,0.33231 l 0,0.11076 c 0.1846,0.33233 0.31383,0.86771 0.38769,1.60616 l 0.11077,0 c 1.77229,1e-5 2.65844,0.99693 2.65846,2.99077 l 0,0.27692 c -0.0369,0.1477 -0.0554,0.25847 -0.0554,0.33231 l 0,0.16615 c -0.18464,1.21847 -0.5354,2.08616 -1.05231,2.60308 0.29537,0.51693 0.44306,1.12616 0.44308,1.82769 l 0,0.49846 c -2e-5,0.1477 -0.0185,0.29539 -0.0554,0.44308"
       inkscape:label="#path4427" />
    <path
       d="m 198.38194,346.04619 c 0.22153,-1.66154 -0.25847,-2.49231 -1.44,-2.49231 -1.18154,0 -1.88308,0.83077 -2.10461,2.49231 -0.22154,1.69846 0.25846,2.54769 1.44,2.54769 1.18153,0 1.88307,-0.84923 2.10461,-2.54769 m -3.10154,-5.31692 c 0.18462,-1.66153 -0.31384,-2.4923 -1.49538,-2.49231 -1.18154,10e-6 -1.86462,0.83078 -2.04923,2.49231 -0.18462,1.69847 0.29538,2.54769 1.44,2.54769 1.21846,0 1.92,-0.84922 2.10461,-2.54769 m 6.92308,5.31692 c 0.22153,-1.66154 -0.25847,-2.49231 -1.44,-2.49231 -1.18155,0 -1.88308,0.83077 -2.10462,2.49231 -0.22154,1.69846 0.25846,2.54769 1.44,2.54769 1.18154,0 1.88307,-0.84923 2.10462,-2.54769 m -3.15692,-5.31692 c 0.1846,-1.66153 -0.31386,-2.4923 -1.49539,-2.49231 -1.18154,10e-6 -1.86461,0.83078 -2.04923,2.49231 -0.18461,1.69847 0.29539,2.54769 1.44,2.54769 1.21846,0 1.91999,-0.84922 2.10462,-2.54769 m -3.10154,-5.31693 c 0.18461,-1.66152 -0.31385,-2.49229 -1.49539,-2.4923 -1.18153,1e-5 -1.86461,0.83078 -2.04923,2.4923 -0.18461,1.69847 0.29539,2.5477 1.44,2.5477 1.21846,0 1.92,-0.84923 2.10462,-2.5477 m 10.02461,10.63385 c 0.22153,-1.66154 -0.25847,-2.49231 -1.44,-2.49231 -1.18154,0 -1.88308,0.83077 -2.10461,2.49231 -0.22155,1.69846 0.25845,2.54769 1.44,2.54769 1.18152,0 1.88306,-0.84923 2.10461,-2.54769 m -3.10153,-5.31692 c 0.1846,-1.66153 -0.31386,-2.4923 -1.49539,-2.49231 -1.18155,10e-6 -1.86462,0.83078 -2.04923,2.49231 -0.18462,1.69847 0.29538,2.54769 1.44,2.54769 1.21845,0 1.91999,-0.84922 2.10462,-2.54769 m -3.15693,-5.31693 c 0.18461,-1.66152 -0.31385,-2.49229 -1.49538,-2.4923 -1.18155,1e-5 -1.86463,0.83078 -2.04923,2.4923 -0.18462,1.69847 0.29537,2.5477 1.44,2.5477 1.21845,0 1.91999,-0.84923 2.10461,-2.5477 m 10.08,10.63385 c 0.22153,-1.66154 -0.25847,-2.49231 -1.44,-2.49231 -1.18155,0 -1.88309,0.83077 -2.10461,2.49231 -0.22156,1.69846 0.25844,2.54769 1.44,2.54769 1.18152,0 1.88306,-0.84923 2.10461,-2.54769 M 196.55425,330.1508 c 0.22153,-1.69844 -0.25847,-2.54767 -1.44,-2.54769 -1.18154,2e-5 -1.88308,0.84925 -2.10462,2.54769 -0.18461,1.66156 0.31385,2.49233 1.49539,2.49231 1.18154,2e-5 1.86461,-0.83075 2.04923,-2.49231 m 10.08,10.57847 c 0.1846,-1.66153 -0.31386,-2.4923 -1.49539,-2.49231 -1.18155,10e-6 -1.86462,0.83078 -2.04923,2.49231 -0.18462,1.69847 0.29538,2.54769 1.44,2.54769 1.21845,0 1.91999,-0.84922 2.10462,-2.54769 m -3.10154,-5.31693 c 0.18461,-1.66152 -0.31385,-2.49229 -1.49538,-2.4923 -1.18155,1e-5 -1.86463,0.83078 -2.04923,2.4923 -0.18463,1.69847 0.29537,2.5477 1.44,2.5477 1.21845,0 1.91999,-0.84923 2.10461,-2.5477 m -3.21231,-5.26154 c 0.22153,-1.69844 -0.25847,-2.54767 -1.44,-2.54769 -1.18154,2e-5 -1.88308,0.84925 -2.10461,2.54769 -0.18463,1.66156 0.31384,2.49233 1.49538,2.49231 1.18153,2e-5 1.86461,-0.83075 2.04923,-2.49231 m 10.13539,10.57847 c 0.1846,-1.66153 -0.31386,-2.4923 -1.49539,-2.49231 -1.18155,10e-6 -1.86463,0.83078 -2.04923,2.49231 -0.18463,1.69847 0.29537,2.54769 1.44,2.54769 1.21845,0 1.91999,-0.84922 2.10462,-2.54769 m -13.23693,-15.89539 c 0.22154,-1.69844 -0.25846,-2.54767 -1.44,-2.54769 -1.18153,2e-5 -1.88307,0.84925 -2.10461,2.54769 -0.22154,1.66156 0.25846,2.49233 1.44,2.49231 1.18153,2e-5 1.88307,-0.83075 2.10461,-2.49231 m 6.92308,5.31692 c 0.22152,-1.69844 -0.25848,-2.54767 -1.44,-2.54769 -1.18154,2e-5 -1.88308,0.84925 -2.10461,2.54769 -0.18463,1.66156 0.31383,2.49233 1.49538,2.49231 1.18153,2e-5 1.8646,-0.83075 2.04923,-2.49231 m 10.08,10.57847 c 0.18459,-1.66153 -0.31387,-2.4923 -1.49538,-2.49231 -1.18156,10e-6 -1.86463,0.83078 -2.04923,2.49231 -0.18463,1.69847 0.29537,2.54769 1.44,2.54769 1.21843,0 1.91997,-0.84922 2.10461,-2.54769 m -13.23692,-15.89539 c 0.22153,-1.69844 -0.25847,-2.54767 -1.44,-2.54769 -1.18155,2e-5 -1.88309,0.84925 -2.10462,2.54769 -0.22154,1.66156 0.25846,2.49233 1.44,2.49231 1.18153,2e-5 1.88307,-0.83075 2.10462,-2.49231 m 10.13538,10.57846 c 0.1846,-1.66152 -0.31386,-2.49229 -1.49538,-2.4923 -1.18156,1e-5 -1.86463,0.83078 -2.04923,2.4923 -0.18463,1.69847 0.29537,2.5477 1.44,2.5477 1.21844,0 1.91998,-0.84923 2.10461,-2.5477 m -13.23692,-15.89538 c 0.22153,-1.69843 -0.27693,-2.54766 -1.49538,-2.54769 -1.14462,3e-5 -1.8277,0.84926 -2.04924,2.54769 -0.22153,1.66156 0.25847,2.49233 1.44,2.49231 1.18154,2e-5 1.88307,-0.83075 2.10462,-2.49231 m 17.00308,15.89538 c 0.18459,-1.66152 -0.31387,-2.49229 -1.49539,-2.4923 -1.18156,1e-5 -1.86464,0.83078 -2.04923,2.4923 -0.18463,1.69847 0.29536,2.5477 1.44,2.5477 1.21844,0 1.91998,-0.84923 2.10462,-2.5477 m -13.23693,-15.89538 c 0.22153,-1.69843 -0.27693,-2.54766 -1.49538,-2.54769 -1.14462,3e-5 -1.8277,0.84926 -2.04923,2.54769 -0.22155,1.66156 0.25845,2.49233 1.44,2.49231 1.18153,2e-5 1.88307,-0.83075 2.10461,-2.49231 m 10.08,10.63384 c 0.22152,-1.69844 -0.25847,-2.54767 -1.44,-2.54769 -1.18155,2e-5 -1.88309,0.84925 -2.10461,2.54769 -0.18463,1.66156 0.31383,2.49233 1.49538,2.49231 1.18153,2e-5 1.8646,-0.83075 2.04923,-2.49231 M 198.5481,314.20003 c 0.1846,-1.69843 -0.31386,-2.54765 -1.49539,-2.54769 -1.18154,4e-5 -1.86461,0.84926 -2.04923,2.54769 -0.18462,1.6985 0.29538,2.54773 1.44,2.5477 1.21845,3e-5 1.91999,-0.8492 2.10462,-2.5477 m 10.02461,10.63385 c 0.22152,-1.69844 -0.25848,-2.54767 -1.44,-2.54769 -1.18155,2e-5 -1.88309,0.84925 -2.10461,2.54769 -0.22156,1.66156 0.25844,2.49233 1.44,2.49231 1.18152,2e-5 1.88306,-0.83075 2.10461,-2.49231 m 6.92308,5.31692 c 0.22151,-1.69844 -0.25849,-2.54767 -1.44,-2.54769 -1.18156,2e-5 -1.8831,0.84925 -2.10462,2.54769 -0.18464,1.66156 0.31383,2.49233 1.49539,2.49231 1.18151,2e-5 1.86459,-0.83075 2.04923,-2.49231 m -13.18154,-15.95077 c 0.18461,-1.69843 -0.31385,-2.54765 -1.49539,-2.54769 -1.18154,4e-5 -1.86462,0.84926 -2.04923,2.54769 -0.18462,1.6985 0.29538,2.54773 1.44,2.5477 1.21846,3e-5 1.92,-0.8492 2.10462,-2.5477 m 10.08,10.63385 c 0.22151,-1.69844 -0.25849,-2.54767 -1.44,-2.54769 -1.18155,2e-5 -1.88309,0.84925 -2.10462,2.54769 -0.22155,1.66156 0.25845,2.49233 1.44,2.49231 1.18153,2e-5 1.88306,-0.83075 2.10462,-2.49231 m -3.15692,-5.31692 c 0.22152,-1.69843 -0.27694,-2.54766 -1.49539,-2.54769 -1.14463,3e-5 -1.82771,0.84926 -2.04923,2.54769 -0.22155,1.66156 0.25845,2.49233 1.44,2.49231 1.18152,2e-5 1.88306,-0.83075 2.10462,-2.49231 m -3.10154,-5.31693 c 0.1846,-1.69843 -0.31386,-2.54765 -1.49539,-2.54769 -1.18154,4e-5 -1.86462,0.84926 -2.04923,2.54769 -0.18462,1.6985 0.29538,2.54773 1.44,2.5477 1.21845,3e-5 1.91999,-0.8492 2.10462,-2.5477 m 10.02461,10.63385 c 0.22152,-1.69844 -0.25848,-2.54767 -1.44,-2.54769 -1.18156,2e-5 -1.8831,0.84925 -2.10461,2.54769 -0.22156,1.66156 0.25844,2.49233 1.44,2.49231 1.18151,2e-5 1.88305,-0.83075 2.10461,-2.49231 m -13.23692,-15.95077 c 0.18461,-1.69842 -0.29539,-2.54765 -1.44,-2.54769 -1.21847,4e-5 -1.92001,0.84927 -2.10462,2.54769 -0.18462,1.6985 0.31384,2.54773 1.49539,2.54769 1.18153,4e-5 1.86461,-0.84919 2.04923,-2.54769 m 10.13538,10.63385 c 0.22152,-1.69843 -0.27694,-2.54766 -1.49538,-2.54769 -1.14463,3e-5 -1.82771,0.84926 -2.04923,2.54769 -0.22155,1.66156 0.25845,2.49233 1.44,2.49231 1.18151,2e-5 1.88305,-0.83075 2.10461,-2.49231 m -3.15692,-5.31693 c 0.1846,-1.69843 -0.31386,-2.54765 -1.49538,-2.54769 -1.18156,4e-5 -1.86463,0.84926 -2.04923,2.54769 -0.18463,1.6985 0.29537,2.54773 1.44,2.5477 1.21844,3e-5 1.91998,-0.8492 2.10461,-2.5477 m -3.15692,-5.31692 c 0.1846,-1.69842 -0.2954,-2.54765 -1.44,-2.54769 -1.21848,4e-5 -1.92001,0.84927 -2.10462,2.54769 -0.18462,1.6985 0.31384,2.54773 1.49539,2.54769 1.18152,4e-5 1.8646,-0.84919 2.04923,-2.54769 m 10.08,10.63385 c 0.22151,-1.69843 -0.27695,-2.54766 -1.49539,-2.54769 -1.14463,3e-5 -1.82771,0.84926 -2.04923,2.54769 -0.22156,1.66156 0.25844,2.49233 1.44,2.49231 1.18152,2e-5 1.88306,-0.83075 2.10462,-2.49231 m -3.10154,-5.31693 c 0.18459,-1.69843 -0.31387,-2.54765 -1.49538,-2.54769 -1.18156,4e-5 -1.86464,0.84926 -2.04924,2.54769 -0.18463,1.6985 0.29537,2.54773 1.44,2.5477 1.21844,3e-5 1.91998,-0.8492 2.10462,-2.5477 m -3.21231,-5.31692 c 0.1846,-1.69842 -0.2954,-2.54765 -1.44,-2.54769 -1.21847,4e-5 -1.92001,0.84927 -2.10461,2.54769 -0.18463,1.6985 0.31383,2.54773 1.49538,2.54769 1.18152,4e-5 1.8646,-0.84919 2.04923,-2.54769 m 6.97846,5.31692 c 0.1846,-1.69843 -0.31387,-2.54765 -1.49538,-2.54769 -1.18156,4e-5 -1.86464,0.84926 -2.04923,2.54769 -0.18464,1.6985 0.29536,2.54773 1.44,2.5477 1.21844,3e-5 1.91998,-0.8492 2.10461,-2.5477 m -3.15692,-5.31692 c 0.18459,-1.69842 -0.29541,-2.54765 -1.44,-2.54769 -1.21848,4e-5 -1.92001,0.84927 -2.10461,2.54769 -0.18464,1.6985 0.31383,2.54773 1.49538,2.54769 1.18152,4e-5 1.86459,-0.84919 2.04923,-2.54769 m -0.66461,40.15385 0,-0.0554 c -0.29541,2.32615 -1.36618,3.48923 -3.21231,3.48923 -0.81233,0 -1.44002,-0.22154 -1.88308,-0.66461 -0.51694,0.44307 -1.16309,0.66461 -1.93846,0.66461 -0.81232,0 -1.44002,-0.22154 -1.88308,-0.66461 -0.51694,0.44307 -1.14462,0.66461 -1.88307,0.66461 -0.81232,0 -1.44001,-0.22154 -1.88308,-0.66461 -0.51693,0.44307 -1.16309,0.66461 -1.93846,0.66461 -1.66155,0 -2.52924,-0.92308 -2.60308,-2.76923 l -0.16615,0 c -1.73539,0 -2.60308,-0.97846 -2.60308,-2.93538 l 0,-0.77539 c -0.22154,-0.36923 -0.33231,-0.90461 -0.33231,-1.60615 l -0.16615,0 c -1.73539,0 -2.60308,-0.97846 -2.60308,-2.93538 l 0,-0.49847 c 0,-0.14768 0.0185,-0.29537 0.0554,-0.44307 l 0,0.11077 c 0.11077,-1.18153 0.44308,-2.04923 0.99693,-2.60308 -0.25846,-0.47999 -0.38769,-1.10768 -0.38769,-1.88308 l 0,-0.49846 c 0,-0.14768 0.0185,-0.29538 0.0554,-0.44308 l 0,0.11077 c 0.11077,-1.18152 0.44308,-2.04921 0.99692,-2.60307 -0.29538,-0.51691 -0.44307,-1.16306 -0.44307,-1.93846 0,-0.11076 0.0185,-0.23999 0.0554,-0.3877 l 0,-0.38769 c 0.11077,-1.18152 0.44308,-2.04921 0.99692,-2.60308 -0.25846,-0.47997 -0.3877,-1.0892 -0.3877,-1.82769 l 0,-0.49846 c 0,-0.14767 0.0185,-0.29536 0.0554,-0.44308 l 0,0.0554 c 0.11077,-1.18152 0.44306,-2.04921 0.99692,-2.60308 -0.25847,-0.47998 -0.3877,-1.08921 -0.3877,-1.82769 l 0,-0.49846 c 0,-0.14767 0.0185,-0.29536 0.0554,-0.44308 l 0,0.0554 c 0.11077,-1.1815 0.44308,-2.0492 0.99692,-2.60307 -0.25847,-0.47997 -0.3877,-1.0892 -0.3877,-1.8277 l 0,-0.49846 c 0,-0.14766 0.0185,-0.29535 0.0554,-0.44307 l 0,0.11077 c 0.22155,-2.36304 1.27385,-3.54458 3.15693,-3.54462 0.47998,4e-5 0.90461,0.0923 1.27384,0.27692 -0.0738,-0.18457 -0.11077,-0.38765 -0.11077,-0.60923 l 0,-0.72 c 0,-0.11073 0.0185,-0.23996 0.0554,-0.38769 l 0,-0.38769 c 0.25846,-2.32612 1.32923,-3.48919 3.21231,-3.48923 0.77537,4e-5 1.38461,0.22157 1.82768,0.66461 0.47999,-0.44304 1.1446,-0.66457 1.99385,-0.66461 0.77537,4e-5 1.38461,0.22157 1.8277,0.66461 0.47998,-0.44304 1.12613,-0.66457 1.93845,-0.66461 0.77537,4e-5 1.3846,0.22157 1.82769,0.66461 0.47999,-0.44304 1.1446,-0.66457 1.99385,-0.66461 1.66152,4e-5 2.52921,0.92311 2.60308,2.76923 l 0.16615,0 c 1.73536,4e-5 2.60306,0.9785 2.60308,2.93538 -2e-5,0.33235 -0.0185,0.57235 -0.0554,0.72 0.22152,0.36927 0.36922,0.92311 0.44309,1.66154 l 0.11077,0 c 1.77227,3e-5 2.65843,1.01542 2.65846,3.04615 l 0,0.27693 c -0.0369,0.14772 -0.0554,0.25849 -0.0554,0.33231 l 0,0.16615 c -0.18464,1.21849 -0.53542,2.08618 -1.0523,2.60308 0.29534,0.51694 0.44304,1.14463 0.44308,1.88307 l 0,0.44308 c -4e-5,0.11079 -0.0369,0.27695 -0.11077,0.49846 l 0.0554,-0.11077 c -0.14772,1.14464 -0.49849,2.01233 -1.05231,2.60308 0.29536,0.48002 0.44305,1.08925 0.44309,1.82769 l 0,0.49846 c -4e-5,0.14771 -0.0185,0.2954 -0.0554,0.44308 l 0,-0.0554 c -0.14772,1.14463 -0.49849,2.01232 -1.0523,2.60307 0.29534,0.48002 0.44304,1.08925 0.44308,1.8277 l 0,0.49846 c -4e-5,0.1477 -0.0185,0.2954 -0.0554,0.44307 l 0,-0.11077 c -0.11079,1.18156 -0.44309,2.06771 -0.99691,2.65847 0.29536,0.48 0.44305,1.1077 0.44307,1.88307 l 0,0.27693 c -0.0369,0.1477 -0.0554,0.25847 -0.0554,0.3323 l 0,0.16616 c -0.18464,1.18154 -0.53541,2.0677 -1.05231,2.65846 0.29536,0.48001 0.44306,1.1077 0.44308,1.88308 l 0,0.27692 c -0.0369,0.14769 -0.0554,0.25846 -0.0554,0.33231 l 0,0.16615 c -0.2954,2.32615 -1.36617,3.48923 -3.2123,3.48923 -0.62772,0 -1.0708,-0.0923 -1.32923,-0.27692 0.11074,0.40615 0.16613,0.81231 0.16615,1.21846 l 0,0.49846 c -2e-5,0.14769 -0.0185,0.29539 -0.0554,0.44308 m -7.2,-20.60308 c -0.62771,2e-5 -1.07079,-0.0923 -1.32924,-0.27692 l 0.11077,0.55384 c 0.0369,0.18464 0.0554,0.36925 0.0554,0.55385 l 0.16615,0 c 0.44306,2e-5 0.88614,0.0923 1.32923,0.27692 -0.11078,-0.33229 -0.16617,-0.70152 -0.16615,-1.10769 l -0.16615,0"
       style="font-size:72px;font-style:normal;font-variant:normal;font-weight:normal;font-stretch:normal;line-height:125%;letter-spacing:0px;word-spacing:0px;fill:#000000;fill-opacity:1;stroke:#000000;stroke-width:2.30769229;stroke-miterlimit:4;stroke-opacity:1;stroke-dasharray:none;font-family:Diskoteque;-inkscape-font-specification:Diskoteque"
       id="zero"
       inkscape:connector-curvature="0"
       inkscape:label="#path4434" />
    <path
       transform="matrix(0.8284024,0,0,0.8284024,57.476647,77.779992)"
       d="m 225.71429,303.07648 c 0,25.64179 -20.78678,46.42857 -46.42857,46.42857 -25.64179,0 -46.42857,-20.78678 -46.42857,-46.42857 0,-25.64179 20.78678,-46.42857 46.42857,-46.42857 25.64179,0 46.42857,20.78678 46.42857,46.42857 z"
       sodipodi:ry="46.42857"
       sodipodi:rx="46.42857"
       sodipodi:cy="303.07648"
       sodipodi:cx="179.28572"
       id="mask"
       style="opacity:0;fill:#ffffff;fill-opacity:1;stroke:#000000;stroke-width:3.71428561;stroke-miterlimit:4;stroke-opacity:1;stroke-dasharray:none"
       sodipodi:type="arc"
       inkscape:label="#path3044" />
  </g>
</svg>
